<svg fill="none" height="36" viewBox="0 0 36 36" width="36" xmlns="http://www.w3.org/2000/svg" xmlns:xlink="http://www.w3.org/1999/xlink"><linearGradient id="a" gradientUnits="userSpaceOnUse" x1="30" x2="5.73334" y1="31.4667" y2="5.33333"><stop offset="0" stop-color="#651dd6"/><stop offset="1" stop-color="#06a6f3"/></linearGradient><clipPath id="b"><path d="m0 0h36v36h-36z"/></clipPath><g clip-path="url(#b)"><circle cx="18" cy="18" fill="url(#a)" r="18"/><g fill="#fff"><path d="m29.746 13.0123c-.1748-.6185-.4975-1.237-.9144-1.7749-.121-.1479-.2689-.3227-.3899-.4437-.8202-.86053-1.9228-1.43871-3.0657-1.65385-.0538 0-.0941 0-.1479-.02689-.0941 0-.1748-.02689-.2689-.02689-.3227-.02689-.6454-.02689-.9681-.02689-.121 0-.2421.02689-.3496.02689-1.264.1748-2.4472.76642-3.4826 1.82863-1.7748 1.8018-3.5632 3.5632-5.3112 5.3112l-.8202.8202c-.4975.4975-1.116.8202-1.7345.9413-.0538 0-.0941.0268-.1479.0268s-.0941.0269-.1479.0269c-.1479.0269-.2689.0269-.4168.0269-.269 0-.5244-.0269-.7934-.121-.0268 0-.0941-.0269-.121-.0269-.0538 0-.0941-.0269-.1479-.0538-.2958-.121-.5916-.2689-.88742-.4437-.05378-.0269-.09412-.0538-.14791-.121-.05378-.0538-.12101-.0941-.17479-.1479-.64541-.6185-1.03535-1.4791-1.06224-2.3934-.02689-.8874.29581-1.7345.91433-2.3665.64541-.6723 1.47903-1.0354 2.39343-1.0622.8874-.0269 1.7748.3227 2.4203.9681.2958.2958.5647.5916.8605.8605.1479.1479.6185.6723.7933.8202l1.6539-1.6538c-.1479-.1479-.6454-.6723-.7933-.8606-.3227-.3227-.6454-.6454-.9681-.9412-2.1245-2.00347-5.4591-2.03036-7.61051-.0941-1.68076 1.5059-2.24549 3.8321-1.65387 5.8759.1748.6185.49751 1.237.91433 1.7749.12102.1479.26893.3227.38994.4437.82021.8605 1.92278 1.4387 3.06571 1.6539.0538 0 .0941 0 .1479.0269.0941 0 .1748.0268.2689.0268.3227.0269.6454.0269.9681.0269.121 0 .2421-.0269.3496-.0269 1.264-.1748 2.4472-.7664 3.4826-1.8286 1.7748-1.8018 3.5632-3.5632 5.3112-5.3112l.8202-.8202c.4975-.4975 1.116-.8202 1.7345-.9412.0269 0 .0941 0 .121-.0269.0538 0 .0941-.0269.1479-.0269.1479-.0269.2689-.0269.4168-.0269.269 0 .5244.0269.7934.121.0269 0 .0941.0269.121.0269.0538 0 .0941.0269.1479.0538.2958.121.5916.2689.8874.4437.0538.0269.0941.0538.1479.121.0538.0538.121.0941.1748.1479.6454.6185 1.0354 1.4791 1.0623 2.3934 0 .3496-.0269.7127-.1479 1.0354.6723.4168 1.3042.9412 1.8017 1.5866.6589-1.2505.8068-2.7833.3631-4.1683z"/><path d="m6.24228 23.07c.1748.6185.49751 1.237.91433 1.7749.12102.1479.26892.3227.38994.4437.82021.8605 1.92278 1.4387 3.06565 1.6538.0538 0 .0942 0 .148.0269.0941 0 .1748.0269.2689.0269.3227.0269.6454.0269.9681.0269.121 0 .242-.0269.3496-.0269 1.2639-.1748 2.4472-.7664 3.4825-1.8286 1.7749-1.8018 3.5632-3.5632 5.3112-5.3112l.8202-.8202c.4975-.4975 1.116-.8202 1.7346-.9413.0537 0 .0941-.0268.1479-.0268.0537 0 .0941-.0269.1479-.0269.1479-.0269.2689-.0269.4168-.0269.2689 0 .5244.0269.7933.121.0269 0 .0941.0269.121.0269.0538 0 .0942.0269.1479.0538.2958.121.5917.2689.8875.4437.0538.0269.0941.0538.1479.121.0538.0538.121.0941.1748.1479.6454.6185 1.0353 1.4791 1.0622 2.3934.0269.8874-.2958 1.7345-.9143 2.3665-.6454.6723-1.4791 1.0353-2.3934 1.0622-.8874.0269-1.7749-.3227-2.4203-.9681-.2958-.2958-.5647-.5916-.8605-.8605-.148-.1479-.6186-.6723-.7934-.8202l-1.6538 1.6538c.1479.1479.6454.6723.7933.8606.3227.3227.6454.6454.9681.9412 2.1245 2.0035 5.4591 2.0304 7.6105.0941 1.6807-1.5059 2.2455-3.8321 1.6538-5.8759-.1748-.6185-.4975-1.237-.9143-1.7749-.121-.1479-.2689-.3227-.3899-.4437-.8202-.8605-1.9228-1.4387-3.0657-1.6539-.0538 0-.0942 0-.1479-.0269-.0942 0-.1748-.0268-.269-.0268-.3227-.0269-.6454-.0269-.9681-.0269-.121 0-.242.0269-.3496.0269-1.2639.1748-2.4472.7664-3.4825 1.8286-1.7749 1.8018-3.5632 3.5632-5.3112 5.3112l-.8202.8202c-.4975.4975-1.116.8202-1.7345.9412-.0269 0-.0942 0-.1211.0269-.0537 0-.0941.0269-.1479.0269-.1479.0269-.2689.0269-.4168.0269-.2689 0-.5244-.0269-.7933-.121-.0269 0-.0941-.0269-.121-.0269-.0538 0-.0941-.0269-.1479-.0538-.2958-.121-.59165-.2689-.88747-.4437-.05378-.0269-.09412-.0538-.1479-.121-.05379-.0538-.12102-.0941-.1748-.1479-.64541-.6185-1.03535-1.4791-1.06224-2.3934 0-.3496.02689-.7127.1479-1.0354-.6723-.4168-1.30426-.9412-1.80177-1.5866-.65885 1.237-.77987 2.7833-.36304 4.1683z"/></g></g></svg>