<svg fill="none" height="1em" viewBox="0 0 36 36" width="1em" xmlns="http://www.w3.org/2000/svg" xmlns:xlink="http://www.w3.org/1999/xlink"><clipPath id="a"><path d="m0 0h36v36h-36z"/></clipPath><mask id="b" height="36" maskUnits="userSpaceOnUse" width="36" x="0" y="0"><path d="m0 0h36v36h-36z" fill="#fff"/></mask><g clip-path="url(#a)"><g mask="url(#b)"><path clip-rule="evenodd" d="m35.9883 18c0 9.928-8.0535 17.9761-17.9881 17.9761-9.93448 0-17.987993-8.0481-17.987993-17.9761 0-9.92792 8.053513-17.9760747 17.987993-17.9760747 9.9346 0 17.9881 8.0481547 17.9881 17.9760747z" fill="#2E439E" fill-rule="evenodd"/><path d="m20.9173 16.9182 1.9015-3.2243 5.1254 7.9775.0024 1.5309-.0167-10.535c-.0121-.2575-.149-.4931-.3673-.632l-9.2276-5.30423c-.2158-.10599-.4896-.10487-.705.00329-.0291.01462-.0565.03044-.0826.0477l-.0321.02024-8.95687 5.1869-.03479.0157c-.04468.0206-.08984.0467-.13226.077-.16979.1218-.28261.3017-.31909.5036-.00546.0306-.00948.0618-.01141.0932l.01406 8.5849 4.77406-7.3944c.601-.9806 1.9106-1.2964 3.1263-1.2792l1.4268.0377-8.40687 13.4731.991.5702 8.50767-14.0297 3.7604-.0136-8.4857 14.3837 3.5361 2.0325.4225.2428c.1788.0726.3894.0762.5697.0113l9.3572-5.419-1.789 1.0359zm.7255 10.442-3.5716-5.6018 2.1802-3.6972 4.6906 7.3883z" fill="#2d374b"/><path d="m18.0712 21.7584 3.5716 5.6018 3.2993-1.9107-4.6906-7.3883z" fill="#28a0f0"/><path d="m27.9466 23.2023-.0024-1.5309-5.1254-7.9775-1.9015 3.2243 4.9478 7.9967 1.789-1.0359c.1755-.1424.2816-.3514.2928-.577z" fill="#28a0f0"/><path d="m6.46883 24.6461 2.52632 1.4547 8.40685-13.4731-1.4268-.0377c-1.2157-.0172-2.5252.2986-3.1263 1.2792l-4.77404 7.3944-1.60611 2.4661v.9164z" fill="#fff"/><path d="m22.2542 12.6277-3.7603.0136-8.50766 14.0297 2.97366 1.711.8087-1.3706z" fill="#fff"/><path d="m29.5312 12.6083c-.0314-.7859-.4572-1.5054-1.1242-1.9242l-9.3485-5.37239c-.6598-.33204-1.4841-.33244-2.1449-.00024-.0781.03934-9.09126 5.26313-9.09126 5.26313-.12471.0597-.24484.1309-.3579.2117-.59542.4265-.95838 1.0891-.99566 1.8172v11.1263l1.60611-2.4661-.01407-8.585c.00193-.0314.00587-.0622.01141-.0927.03624-.202.14914-.3822.31909-.504.04242-.0303 9.20948-5.33294 9.23868-5.34756.2155-.10816.4892-.10928.705-.00329l9.2275 5.30425c.2184.1389.3552.3745.3673.632v10.6347c-.0111.2256-.1003.4345-.2758.577l-1.789 1.0359-.923.5346-3.2993 1.9107-3.346 1.9377c-.1802.0651-.3909.0615-.5696-.0112l-3.9587-2.2754-.8087 1.3706 3.5576 2.0469c.1176.0668.2225.1261.3085.1744.1332.0747.2239.1245.256.14.2529.1227.6166.1942.9445.1942.3006 0 .5936-.0552.871-.1637l9.7183-5.6244c.5579-.4319.886-1.0832.9156-1.7887z" fill="#96bedc"/></g></g></svg>
