<svg fill="none" height="1em" viewBox="0 0 36 36" width="1em" xmlns="http://www.w3.org/2000/svg" xmlns:xlink="http://www.w3.org/1999/xlink"><clipPath id="a"><path d="m0 0h36v36h-36z"/></clipPath><g clip-path="url(#a)"><path d="m29.1016 6.17554h-22.22758v20.20216h22.22758z" fill="#fff"/><path clip-rule="evenodd" d="m35.9883 18c0 9.928-8.0535 17.9761-17.9881 17.9761-9.93448 0-17.987993-8.0481-17.987993-17.9761 0-9.92792 8.053513-17.9760742 17.987993-17.9760742 9.9346 0 17.9881 8.0481542 17.9881 17.9760742zm-23.0854 7.1536h-3.49093c-.73356 0-1.09591 0-1.31684-.1413-.23864-.1546-.38446-.4107-.40213-.6934-.01327-.2604.16793-.5785.53027-1.2144l8.61963-15.18319c.3668-.64475.5524-.96712.7866-1.08635.2519-.12806.5524-.12806.8042 0 .2342.11923.4198.4416.7866 1.08635l1.772 3.09119.0091.0158c.3961.6917.597 1.0424.6847 1.4106.0972.4018.0972.8258 0 1.2276-.0884.371-.2872.7243-.6894 1.4264l-4.5277 7.9984-.0117.0204c-.3987.6974-.6008 1.0509-.8809 1.3175-.3049.2916-.6717.5034-1.0738.6229-.3668.1015-.7777.1015-1.5997.1015zm8.8159 0h5.0021c.738 0 1.1093 0 1.3303-.1456.2386-.1546.3888-.4153.4022-.6977.0127-.2521-.1645-.5577-.5119-1.1567-.0119-.0204-.0239-.0411-.0361-.0622l-2.5056-4.2836-.0286-.0482c-.352-.595-.5298-.8955-.758-1.0116-.2518-.1281-.5481-.1281-.7998 0-.2298.1192-.4154.4328-.7822 1.0642l-2.4967 4.2836-.0085.0147c-.3655.6305-.5482.9456-.535 1.2041.0177.2827.1635.5431.4021.6977.2165.1413.5877.1413 1.3257.1413z" fill="#e84142" fill-rule="evenodd"/></g></svg>
