<svg fill="none" height="1em" viewBox="0 0 36 36" width="1em" xmlns="http://www.w3.org/2000/svg" xmlns:xlink="http://www.w3.org/1999/xlink"><clipPath id="a"><path d="m0 0h36v36h-36z"/></clipPath><g clip-path="url(#a)"><path d="m18 36c9.9411 0 18-8.0589 18-18 0-9.94113-8.0589-18-18-18-9.94113 0-18 8.05887-18 18 0 9.9411 8.05887 18 18 18z" fill="#f3ba2f"/><path d="m13.6305 16.2045 4.3695-4.3695 4.3717 4.3717 2.5425-2.5425-6.9142-6.9142-6.912 6.912zm-6.8805 1.7955 2.5425-2.5425 2.5425 2.5425-2.5425 2.5425zm6.8805 1.7955 4.3695 4.3695 4.3717-4.3717 2.5425 2.5413-6.9142 6.9154-6.912-6.912-.0034-.0034zm10.5345-1.7955 2.5425-2.5425 2.5425 2.5425-2.5425 2.5425zm-3.5865-.0022h.0023v.0022l-2.5808 2.5808-2.5774-2.5763-.0045-.0045.0045-.0034.4511-.4522.2194-.2194 1.9069-1.9057 2.5796 2.5796z" fill="#fff"/></g></svg>
