<svg fill="none" height="1em" viewBox="0 0 36 36" width="1em" xmlns="http://www.w3.org/2000/svg" xmlns:xlink="http://www.w3.org/1999/xlink"><clipPath id="a"><path d="m0 0h36v36h-36z"/></clipPath><g clip-path="url(#a)"><path d="m18 36c9.9411 0 18-8.0589 18-18 0-9.94113-8.0589-18-18-18-9.94113 0-18 8.05887-18 18 0 9.9411 8.05887 18 18 18z" fill="#627eea"/><g fill="#fff"><path d="m18.5601 4.5v9.9788l8.4341 3.7687z" fill-opacity=".602"/><path d="m18.5602 4.5-8.4352 13.7475 8.4352-3.7687z"/><path d="m18.5601 24.714v6.7804l8.4397-11.6764z" fill-opacity=".602"/><path d="m18.5602 31.4944v-6.7815l-8.4352-4.8949z"/><path d="m18.5601 23.1446 8.4341-4.8971-8.4341-3.7665z" fill-opacity=".2"/><path d="m10.125 18.2475 8.4352 4.8971v-8.6636z" fill-opacity=".602"/></g></g></svg>
