<svg fill="none" height="1em" viewBox="0 0 36 36" width="1em" xmlns="http://www.w3.org/2000/svg"><path d="m18 36c9.9411 0 18-8.0589 18-18 0-9.94113-8.0589-18-18-18-9.94113 0-18 8.05887-18 18 0 9.9411 8.05887 18 18 18z" fill="#0d1126"/><path d="m20.5308 6.67253c-4.5846 0-8.3013 3.71667-8.3013 8.30127h.0001c.0001.0058-.0003.0115 0 .0174l.0007.0129c.0116.2164.1919.3853.4087.3853h15.7836c.2168 0 .3972-.1689.4086-.3853l.0007-.0129c.0003-.0059-.0001-.0116 0-.0174h.0002c0-4.5846-3.7167-8.30127-8.3013-8.30127z" fill="#53cbc8"/><g fill="#e1147b"><path d="m6.73497 24.2424c0 .2789-.22615.5052-.50522.5052-.27899 0-.50514-.2263-.50514-.5052 0-.279.22615-.5052.50514-.5052.27907 0 .50522.2262.50522.5052z"/><path d="m27.8745 21.4472h-16.9362c-.3768 0-.6159.4022-.4377.7342.0027.0052.0055.0105.0084.0157.0866.1608.2552.2604.4378.2604h16.9191c.1826 0 .3511-.0996.4378-.2604.0028-.0052.0057-.0105.0085-.0157.1781-.332-.061-.7342-.4377-.7342z"/><path d="m30.1252 16.8676h-19.1874c-.286 0-.5114.2405-.4967.5262.0003.0053.0006.0105.0009.0158.014.263.2332.4683.4967.4683h19.1856c.2634 0 .4827-.2053.4966-.4683.0003-.0053.0006-.0105.0009-.0158.0147-.2857-.2106-.5262-.4966-.5262z"/><path d="m22.8994 28.317h-8.6469c-.5253 0-.6907.7063-.2218.9429.0106.0053.0211.0105.0316.0159.0688.0343.145.0516.2219.0516h8.5835c.077 0 .1531-.0173.2219-.0516.0105-.0054.0211-.0106.0316-.0159.4689-.2366.3035-.9429-.2218-.9429z"/><path d="m28.1836 26.0272h-8.6469c-.5253 0-.6907.7062-.2218.9429.0105.0053.0211.0105.0316.0159.0688.0343.1449.0516.2219.0516h8.5835c.0769 0 .1531-.0173.2219-.0516.0105-.0054.021-.0106.0315-.0159.4689-.2367.3035-.9429-.2217-.9429z"/><path d="m16.3921 24.5886c-.0049-.0052-.0098-.0105-.0147-.0157-.2966-.317-.0692-.8357.3649-.8357h14.0341c.4341 0 .6614.5187.3648.8357-.0048.0052-.0097.0105-.0146.0157-.0948.1009-.2265.159-.3648.159h-14.0049c-.1384 0-.27-.0581-.3648-.159z"/><path d="m8.03371 23.7372h6.70159c.5253 0 .6908.7062.2218.9429-.0105.0052-.021.0105-.0316.0158-.0688.0344-.1449.0517-.2218.0517h-6.63831c-.07688 0-.15308-.0173-.22188-.0517-.01053-.0053-.02107-.0106-.03153-.0158-.46895-.2367-.3035-.9429.22173-.9429z"/><path d="m9.6383 17.3728c0 .279-.22616.5051-.50523.5051-.27899 0-.50514-.2261-.50514-.5051s.22615-.5052.50514-.5052c.27907 0 .50523.2262.50523.5052z"/><path d="m21.5477 19.7992c.0014-.0052.0028-.0105.0042-.0157.0855-.3156-.1538-.6259-.4807-.6259h-14.03591c-.32694 0-.56622.3103-.48071.6259.00137.0052.00282.0105.00428.0157.05917.2173.25547.3688.48063.3688h14.02751c.2252 0 .4214-.1515.4807-.3688"/><path d="m5.73497 19.6625c0 .279-.22615.5052-.50522.5052-.27899 0-.50514-.2262-.50514-.5052s.22615-.5051.50514-.5051c.27907 0 .50522.2261.50522.5051z"/><path d="m9.6383 21.9525c0 .279-.22616.5053-.50523.5053-.27899 0-.50514-.2263-.50514-.5053 0-.2789.22615-.5051.50514-.5051.27907 0 .50523.2262.50523.5051z"/><path d="m18.2369 26.5325c0 .2789-.2261.5051-.5052.5051-.279 0-.5051-.2262-.5051-.5051 0-.279.2261-.5053.5051-.5053.2791 0 .5052.2263.5052.5053z"/><path d="m12.9527 28.8222c0 .279-.2261.5052-.5052.5052-.279 0-.5051-.2262-.5051-.5052 0-.2789.2261-.5052.5051-.5052.2791 0 .5052.2263.5052.5052z"/></g></svg>