<svg fill="none" height="1em" viewBox="0 0 36 36" width="1em" xmlns="http://www.w3.org/2000/svg" xmlns:xlink="http://www.w3.org/1999/xlink"><clipPath id="a"><path d="m0 0h36v36h-36z"/></clipPath><clipPath id="b"><path d="m7 8h22.9254v20h-22.9254z"/></clipPath><g clip-path="url(#a)"><path clip-rule="evenodd" d="m35.9883 18c0 9.928-8.0535 17.9761-17.9881 17.9761-9.93448 0-17.987993-8.0481-17.987993-17.9761 0-9.92792 8.053513-17.9760742 17.987993-17.9760742 9.9346 0 17.9881 8.0481542 17.9881 17.9760742z" fill="#8247e5" fill-rule="evenodd"/><g clip-path="url(#b)"><path d="m24.3134 14.0896c-.4179-.2388-.9552-.2388-1.4328 0l-3.3433 1.9701-2.2686 1.2537-3.2836 1.9702c-.4179.2388-.9552.2388-1.4329 0l-2.56713-1.5522c-.41791-.2389-.71641-.7165-.71641-1.2538v-2.9851c0-.4776.2388-.9552.71641-1.2537l2.56713-1.4925c.4179-.2388.9553-.2388 1.4329 0l2.5671 1.5522c.4179.2388.7165.7164.7165 1.2537v1.9702l2.2686-1.3134v-2.0299c0-.4776-.2388-.9552-.7164-1.2537l-4.7761-2.80599c-.4179-.2388-.9552-.2388-1.4329 0l-4.89548 2.86569c-.47761.2388-.71642.7164-.71642 1.194v5.612c0 .4776.23881.9552.71642 1.2537l4.83578 2.806c.4179.2388.9553.2388 1.4329 0l3.2836-1.9105 2.2686-1.3134 3.2836-1.9105c.4179-.2388.9552-.2388 1.4328 0l2.5672 1.4926c.4179.2388.7164.7164.7164 1.2537v2.9851c0 .4776-.2388.9552-.7164 1.2537l-2.5075 1.4925c-.4179.2388-.9552.2388-1.4328 0l-2.5672-1.4925c-.4179-.2388-.7164-.7164-.7164-1.2537v-1.9105l-2.2686 1.3135v1.9701c0 .4776.2388.9552.7164 1.2537l4.8358 2.806c.4179.2388.9552.2388 1.4328 0l4.8359-2.806c.4179-.2388.7164-.7164.7164-1.2537v-5.6716c0-.4776-.2388-.9553-.7164-1.2538z" fill="#fff"/></g></g></svg>
