<svg fill="none" height="245" viewBox="0 0 245 245" width="245" xmlns="http://www.w3.org/2000/svg" xmlns:xlink="http://www.w3.org/1999/xlink"><linearGradient id="a" gradientUnits="userSpaceOnUse" x1="73.2475" x2="170.901" y1="147.631" y2="49.5314"><stop offset="0" stop-color="#651dd6"/><stop offset="1" stop-color="#06a6f3"/></linearGradient><linearGradient id="b" gradientUnits="userSpaceOnUse" x1="58.289" x2="202.313" y1="110.577" y2="188.708"><stop offset=".00372428" stop-color="#6100ed"/><stop offset="1" stop-color="#c15aff"/></linearGradient><clipPath id="c"><path d="m0 0h245v245h-245z"/></clipPath><g clip-path="url(#c)"><path d="m245 122.5c0 90.741-31.759 122.5-122.5 122.5-90.7407 0-122.5-31.306-122.5-122.5 0-91.1944 31.3056-122.5 122.5-122.5 91.194 0 122.5 31.7593 122.5 122.5z" fill="#f7f9fa"/><path d="m203.264 88.2927c-1.194-4.2073-3.399-8.4146-6.248-12.0731-.827-1.0061-1.837-2.1952-2.664-3.0183-5.605-5.8537-13.139-9.7866-20.949-11.25-.368 0-.643 0-1.011-.1829-.643 0-1.194-.183-1.838-.183-2.205-.1829-4.41-.1829-6.615-.1829-.827 0-1.654.1829-2.389.1829-8.637 1.1891-16.722 5.2134-23.797 12.439-12.129 12.2561-24.349 24.2378-36.293 36.1276l-5.6051 5.58c-3.3996 3.384-7.6261 5.579-11.8527 6.402-.3675 0-.6431.183-1.0107.183-.3675 0-.6431.183-1.0107.183-1.0107.183-1.8376.183-2.8483.183-1.8376 0-3.5834-.183-5.421-.823-.1837 0-.6432-.183-.8269-.183-.3675 0-.6432-.183-1.0107-.366-2.0214-.823-4.0428-1.829-6.0642-3.018-.3675-.183-.6432-.366-1.0107-.824-.3675-.365-.8269-.64-1.1944-1.006-4.4103-4.207-7.0749-10.061-7.2587-16.28-.1837-6.0366 2.0214-11.7988 6.248-16.0976 4.4103-4.5732 10.1069-7.0427 16.3549-7.2256 6.0641-.1829 12.1283 2.1951 16.5386 6.5854 2.0214 2.0121 3.859 4.0243 5.8806 5.8536 1.011 1.0061 4.226 4.5732 5.421 5.5793l11.301-11.25c-1.011-1.0061-4.41-4.5732-5.421-5.8537-2.205-2.1951-4.41-4.3902-6.615-6.4024-14.5175-13.628-37.3041-13.8109-52.0051-.6402-11.4852 10.2439-15.3442 26.067-11.3014 39.9692 1.1945 4.208 3.3996 8.415 6.2479 12.073.827 1.006 1.8377 2.195 2.6646 3.019 5.6048 5.853 13.139 9.786 20.9489 11.25.3676 0 .6432 0 1.0107.183.6432 0 1.1945.182 1.8377.182 2.2051.183 4.4103.183 6.6154.183.8269 0 1.6539-.183 2.3889-.183 8.6369-1.189 16.7224-5.213 23.7974-12.439 12.128-12.256 24.348-24.237 36.293-36.1275l5.605-5.5793c3.399-3.3841 7.626-5.5792 11.852-6.4024.184 0 .644 0 .827-.1829.368 0 .644-.1829 1.011-.1829 1.011-.183 1.838-.183 2.848-.183 1.838 0 3.584.183 5.421.8232.184 0 .644.1829.827.1829.368 0 .644.1829 1.011.3659 2.021.8231 4.043 1.8292 6.064 3.0183.368.1829.643.3658 1.011.8231.367.3659.827.6403 1.194 1.0061 4.411 4.2073 7.075 10.061 7.259 16.2805 0 2.378-.184 4.848-1.011 7.043 4.594 2.835 8.913 6.402 12.312 10.792 4.503-8.506 5.513-18.9326 2.481-28.3533z" fill="url(#a)"/><path d="m42.6556 156.707c1.1944 4.208 3.3996 8.415 6.2479 12.073.827 1.007 1.8376 2.196 2.6646 3.019 5.6047 5.853 13.139 9.786 20.9489 11.25.3675 0 .6432 0 1.0107.183.6432 0 1.1945.183 1.8376.183 2.2052.182 4.4103.182 6.6155.182.8269 0 1.6538-.182 2.3889-.182 8.6368-1.189 16.7223-5.214 23.7973-12.439 12.128-12.257 24.349-24.238 36.293-36.128l5.605-5.58c3.399-3.384 7.626-5.579 11.853-6.402.367 0 .643-.183 1.01-.183.368 0 .643-.183 1.011-.183 1.011-.183 1.838-.183 2.848-.183 1.838 0 3.584.183 5.421.823.184 0 .643.183.827.183.368 0 .643.183 1.011.366 2.021.823 4.043 1.829 6.064 3.018.368.183.643.366 1.011.824.367.365.827.64 1.194 1.006 4.41 4.207 7.075 10.061 7.259 16.28.184 6.037-2.022 11.799-6.248 16.098-4.41 4.573-10.107 7.042-16.355 7.225-6.064.183-12.128-2.195-16.539-6.585-2.021-2.012-3.859-4.025-5.88-5.854-1.011-1.006-4.227-4.573-5.421-5.579l-11.301 11.25c1.01 1.006 4.41 4.573 5.421 5.854 2.205 2.195 4.41 4.39 6.615 6.402 14.517 13.628 37.304 13.811 52.005.64 11.485-10.244 15.344-26.067 11.301-39.969-1.194-4.208-3.399-8.415-6.248-12.073-.827-1.006-1.837-2.195-2.664-3.019-5.605-5.853-13.139-9.786-20.949-11.25-.368 0-.643 0-1.011-.183-.643 0-1.194-.182-1.838-.182-2.205-.183-4.41-.183-6.615-.183-.827 0-1.654.183-2.389.183-8.637 1.189-16.722 5.213-23.797 12.439-12.128 12.256-24.349 24.237-36.293 36.128l-5.605 5.579c-3.3996 3.384-7.6262 5.579-11.8527 6.402-.1838 0-.6432 0-.8269.183-.3676 0-.6432.183-1.0107.183-1.0107.183-1.8377.183-2.8483.183-1.8377 0-3.5834-.183-5.4211-.823-.1837 0-.6431-.183-.8269-.183-.3675 0-.6432-.183-1.0107-.366-2.0214-.823-4.0427-1.829-6.0641-3.018-.3676-.183-.6432-.366-1.0107-.823-.3676-.366-.827-.641-1.1945-1.007-4.4103-4.207-7.0749-10.06-7.2586-16.28 0-2.378.1837-4.848 1.0107-7.043-4.5941-2.835-8.9125-6.402-12.3121-10.792-4.5022 8.414-5.3291 18.933-2.4808 28.353z" fill="url(#b)"/></g></svg>