<svg fill="none" height="20" viewBox="0 0 64 20" width="64" xmlns="http://www.w3.org/2000/svg" xmlns:xlink="http://www.w3.org/1999/xlink"><linearGradient id="a" gradientUnits="userSpaceOnUse" x1="5.21988" x2="21.0986" y1="14.0864" y2="-1.7924"><stop offset="0" stop-color="#651dd6"/><stop offset="1" stop-color="#06a6f3"/></linearGradient><linearGradient id="b" gradientUnits="userSpaceOnUse" x1="2.79843" x2="26.1586" y1="8.06125" y2="20.6762"><stop offset=".00372428" stop-color="#6100ed"/><stop offset="1" stop-color="#c15aff"/></linearGradient><g fill="#000034"><path d="m30.7114 14.8334c.8329.5949 1.9185.8923 3.257.8923h2.3944c1.3236 0 2.4242-.2974 3.257-.8923.8031-.5651 1.1898-1.3533 1.1898-2.4241 0-1.1303-.4462-1.9334-1.3831-2.42418l-.5503-.29744.4908-.38667c.6841-.55027 1.0262-1.17489 1.0262-1.9185 0-.55026-.119-1.04104-.3421-1.45746-.2231-.40155-.5354-.71386-.9221-.95181-.4164-.23795-.8923-.43129-1.4128-.55027s-1.1154-.17846-1.7549-.17846h-1.6211c-.6395 0-1.2195.05948-1.7549.17846-.5205.11898-.9815.29744-1.4128.55027-.4016.22308-.699.53539-.9221.95181-.2231.40155-.3421.89232-.3421 1.45746 0 .74361.3421 1.36823 1.0411 1.9185l.4759.38667-.5354.29744c-.9072.50568-1.3534 1.29388-1.3534 2.42418-.0148 1.0708.3718 1.859 1.1749 2.4241zm2.2606-8.64065c.3867-.23795.9667-.34206 1.74-.34206h.8626c.7734 0 1.3385.11898 1.74.34206.3123.17846.6841.56514.6841 1.32361 0 .75848-.3718 1.14515-.6841 1.32362-.3866.23795-.9666.35693-1.74.35693h-.8626c-.7733 0-1.3385-.11898-1.74-.35693-.3123-.19334-.6841-.56514-.6841-1.32362 0-.75847.3718-1.14515.6841-1.32361zm-.3867 4.81855c.3867-.238.9667-.3569 1.74-.3569h1.6657c.7734 0 1.3534.1189 1.7401.3569.3123.1933.6841.58.6841 1.3831s-.3718 1.2046-.6841 1.3831c-.3867.238-.9667.3569-1.7401.3569h-1.6657c-.7733 0-1.3533-.1189-1.74-.3569-.3123-.1933-.6841-.58-.6841-1.3831 0-.7882.3718-1.1898.6841-1.3831z"/><path d="m43.3975 14.8334c.8329.5949 1.9185.8923 3.257.8923h2.3944c1.3236 0 2.4242-.2974 3.257-.8923.8031-.5651 1.1898-1.3533 1.1898-2.4241 0-1.1303-.4462-1.9334-1.3831-2.42418l-.5503-.29744.4908-.38667c.6841-.55027 1.0262-1.17489 1.0262-1.9185 0-.55026-.119-1.04104-.3421-1.45746s-.5354-.71386-.9221-.95181c-.4164-.23795-.8923-.43129-1.4128-.55027s-1.1154-.17846-1.7549-.17846h-1.6211c-.6395 0-1.2195.05948-1.7549.17846-.5205.11898-.9815.29744-1.4128.55027-.4016.22308-.699.53539-.9221.95181-.2231.40155-.342.89232-.342 1.45746 0 .74361.342 1.36823 1.041 1.9185l.4759.38667-.5354.29744c-.9072.50568-1.3533 1.29388-1.3533 2.42418 0 1.0708.3866 1.859 1.1748 2.4241zm2.2755-8.64065c.3867-.23795.9667-.34206 1.74-.34206h.8626c.7733 0 1.3385.11898 1.74.34206.3123.17846.6841.56514.6841 1.32361 0 .75848-.3718 1.14515-.6841 1.32362-.3867.23795-.9667.35693-1.74.35693h-.8626c-.7733 0-1.3385-.11898-1.74-.35693-.3123-.19334-.6841-.56514-.6841-1.32362-.0149-.75847.3569-1.14515.6841-1.32361zm-.3867 4.81855c.3867-.238.9667-.3569 1.74-.3569h1.6657c.7734 0 1.3534.1189 1.74.3569.3123.1933.6842.58.6842 1.3831s-.3719 1.2046-.6842 1.3831c-.3866.238-.9666.3569-1.74.3569h-1.6657c-.7733 0-1.3533-.1189-1.74-.3569-.3123-.1933-.6841-.58-.6841-1.3831s.3718-1.1898.6841-1.3831z"/><path d="m63.7279 14.9375-.0149-.0148-2.9595-3.8668 2.7513-3.83697c.0149-.01487.0149-.02974.0297-.04461h-1.6656c-.3718 0-.6693.16359-.9072.50565l-1.636 2.48363-1.6508-2.48363c-.2379-.34206-.5205-.50565-.8923-.50565h-1.6508c.0149.01487.0149.02974.0298.04461l2.7513 3.83697-2.9447 3.8519c-.0149.0149-.0149.0297-.0297.0297h1.6359c.3569 0 .6395-.1636.9072-.5205l1.859-2.4688 1.8441 2.4688c.2677.3569.5503.5205.9072.5205z"/></g><path d="m26.2646 4.43784c-.1933-.68412-.5503-1.36823-1.0113-1.96311-.1339-.1636-.2974-.35693-.4313-.49078-.9072-.95182-2.1267-1.591315-3.3908-1.829268-.0595 0-.1041.000001-.1636-.029743-.1041 0-.1934-.029744-.2975-.029744-.3569-.0297441-.7138-.0297436-1.0708-.0297436-.1338 0-.2676.0297436-.3866.0297436-1.398.193337-2.7067.847706-3.8519 2.022595-1.9631 1.99286-3.9411 3.9411-5.87445 5.87447l-.9072.9072c-.55026.55026-1.23438.90719-1.91849 1.04104-.05949 0-.10411.02975-.1636.02975s-.1041.02974-.16359.02974c-.16359.02971-.29744.02971-.46103.02971-.29744 0-.58001-.02971-.87745-.13381-.02975 0-.10411-.02975-.13385-.02975-.05949 0-.10411-.02974-.1636-.05949-.32718-.13385-.65437-.29744-.98155-.49078-.05949-.02974-.10411-.05949-.1636-.13385-.05948-.05948-.13384-.1041-.19333-.16359-.71386-.68411-1.14515-1.63592-1.1749-2.64722-.02974-.98156.32719-1.9185 1.0113-2.61749.71386-.7436 1.63593-1.14515 2.64723-1.17489.98156-.02974 1.96311.35693 2.67697 1.07079.32719.32718.62463.65437.95182.95181.16359.16359.68412.7436.87742.9072l1.8293-1.82927c-.1636-.16359-.7139-.7436-.8775-.95181-.3569-.35693-.7138-.71386-1.0707-1.04104-2.34984-2.215942-6.03811-2.245686-8.41764-.10411-1.859006 1.66567-2.483633 4.23854-1.829262 6.49909.193337.68412.550267 1.36823 1.011302 1.96311.13385.1636.29744.3569.43129.4908.9072.9518 2.1267 1.5913 3.39083 1.8292.05949 0 .1041 0 .16359.0298.10411 0 .19334.0297.29744.0297.35693.0298.71386.0298 1.07079.0298.13385 0 .2677-.0298.38668-.0298 1.39797-.1933 2.70671-.8477 3.85188-2.0226 1.9631-1.99282 3.9411-3.94106 5.8744-5.87443l.9072-.9072c.5503-.55026 1.2344-.90719 1.9185-1.04104.0298 0 .1041 0 .1339-.02974.0595 0 .1041-.02975.1636-.02975.1636-.02974.2974-.02974.461-.02974.2975 0 .58.02974.8775.13385.0297 0 .1041.02974.1338.02974.0595 0 .1041.02974.1636.05949.3272.13385.6544.29744.9816.49078.0594.02974.1041.05948.1636.13385.0594.05948.1338.1041.1933.16359.7139.68411 1.1451 1.63592 1.1749 2.64722 0 .38668-.0298.78822-.1636 1.14515.7436.46104 1.4426 1.04105 1.9928 1.75491.7288-1.3831.8924-3.07852.4016-4.61034z" fill="url(#a)"/><path d="m.267976 15.5622c.193337.6841.550267 1.3682 1.011304 1.9631.13385.1636.29744.3569.43129.4908.90719.9518 2.1267 1.5913 3.39083 1.8292.05949 0 .1041 0 .16359.0298.1041 0 .19333.0297.29744.0297.35693.0298.71386.0298 1.07079.0298.13385 0 .2677-.0298.38667-.0298 1.39798-.1933 2.70672-.8477 3.85191-2.0226 1.9631-1.9928 3.9411-3.9411 5.8744-5.8744l.9072-.9072c.5503-.5503 1.2344-.9072 1.9185-1.0411.0595 0 .1041-.0297.1636-.0297s.1041-.0298.1636-.0298c.1636-.02971.2974-.02971.461-.02971.2975 0 .58.02971.8775.13381.0297 0 .1041.0298.1338.0298.0595 0 .1041.0297.1636.0595.3272.1338.6544.2974.9816.4907.0595.0298.1041.0595.1636.1339.0595.0595.1338.1041.1933.1636.7139.6841 1.1452 1.6359 1.1749 2.6472.0298.9816-.3272 1.9185-1.0113 2.6175-.7139.7436-1.6359 1.1451-2.6472 1.1749-.9816.0297-1.9631-.3569-2.677-1.0708-.3272-.3272-.6246-.6544-.9518-.9518-.1636-.1636-.6841-.7436-.8775-.9072l-1.8292 1.8293c.1636.1636.7138.7436.8774.9518.357.3569.7139.7138 1.0708 1.041 2.3498 2.216 6.0381 2.2457 8.4176.1041 1.859-1.6656 2.4836-4.2385 1.8293-6.4991-.1934-.6841-.5503-1.3682-1.0113-1.96308-.1339-.16359-.2975-.35693-.4313-.49078-.9072-.95181-2.1267-1.59131-3.3909-1.82926-.0594 0-.1041 0-.1635-.02975-.1041 0-.1934-.02974-.2975-.02974-.3569-.02975-.7138-.02975-1.0708-.02975-.1338 0-.2677.02975-.3866.02975-1.398.19334-2.7068.84771-3.8519 2.0226-1.9631 1.99281-3.9411 3.94111-5.87447 5.87451l-.9072.9071c-.55027.5503-1.23438.9072-1.9185 1.0411-.02974 0-.1041 0-.13385.0297-.05948 0-.1041.0298-.16359.0298-.16359.0297-.29744.0297-.46103.0297-.29744 0-.58001-.0297-.87746-.1338-.02974 0-.1041-.0298-.13384-.0298-.05949 0-.10411-.0297-.1636-.0595-.32718-.1338-.65437-.2974-.98155-.4907-.05949-.0298-.10411-.0595-.16359-.1339-.05949-.0595-.13385-.1041-.19334-.1636-.71386-.6841-1.14515-1.6359-1.17489-2.6472 0-.3867.02974-.7882.16359-1.1451-.74361-.4611-1.44259-1.0411-1.992859-1.755-.7287307 1.3683-.862579 3.0786-.401545 4.6104z" fill="url(#b)"/></svg>